<?xml version="1.0" encoding="UTF-8"?>
<svg width="100pt" height="100pt" version="1.1" viewBox="0 0 100 100" xmlns="http://www.w3.org/2000/svg">
 <path d="m50 47.699c-7.8008 0-14.102-6.3008-14.102-14.102 0-7.7969 6.3008-14.098 14.102-14.098s14.102 6.3008 14.102 14.102c0 7.7969-6.3008 14.098-14.102 14.098zm0-25.199c-6.1016 0-11.102 5-11.102 11.102 0 6.1016 5 11.102 11.102 11.102s11.102-5 11.102-11.102c0-6.1016-5-11.102-11.102-11.102z" fill="#fff"/>
 <path d="m79.102 48.898c-5.5 0-9.8984-4.3984-9.8984-9.8984s4.3984-9.8984 9.8984-9.8984 9.8984 4.3984 9.8984 9.8984-4.3984 9.8984-9.8984 9.8984zm0-16.797c-3.8008 0-6.8984 3.1016-6.8984 6.8984 0 3.8008 3.1016 6.8984 6.8984 6.8984 3.7969 0 6.8984-3.0977 6.8984-6.8984s-3.1016-6.8984-6.8984-6.8984z" fill="#fff"/>
 <path d="m20.898 48.898c-5.5 0-9.8984-4.3984-9.8984-9.8984s4.3984-9.8984 9.8984-9.8984 9.8984 4.3984 9.8984 9.8984c0.003906 5.5-4.3984 9.8984-9.8984 9.8984zm0-16.797c-3.8008 0-6.8984 3.1016-6.8984 6.8984 0 3.8008 3.1016 6.8984 6.8984 6.8984 3.8008 0 6.8984-3.1016 6.8984-6.8984 0.003906-3.8008-3.0977-6.8984-6.8984-6.8984z" fill="#fff"/>
 <path d="m79.199 71c-4 0-6.5-0.19922-8.6016-0.5l-1.1992-0.19922v-1.6992c0-4.1992-1.3008-8.3984-3.8008-12.199l-0.5-0.69922 0.39844-0.80078c2.6992-5.3984 8.1016-8.8984 13.602-8.8984 8.3008 0 15.5 7.5 15.602 16.5 0 8.4961-7.8984 8.4961-15.5 8.4961zm-6.8008-3.3008c1.6992 0.19922 3.8008 0.30078 6.8008 0.30078 9.5 0 12.5-0.80078 12.5-5.5-0.097657-7.3008-5.8984-13.5-12.598-13.5-4.1992 0-8.3008 2.5-10.602 6.5 2.3984 3.8008 3.6992 8 3.8984 12.199z" fill="#fff"/>
 <path d="m20.898 71c-7.6016 0-15.5 0-15.5-8.5 0-8.8984 7.1016-16.5 15.5-16.5 5.6016 0 10.898 3.5 13.602 8.8984l0.39844 0.80078-0.5 0.69922c-2.5 3.8008-3.8008 7.8984-3.6992 12.102v1.6992l-1.1992 0.19922c-2.1016 0.40234-4.6016 0.60156-8.6016 0.60156zm0-22c-6.6992 0-12.5 6.3008-12.5 13.5 0 4.6992 3 5.5 12.5 5.5 3 0 5.1016-0.10156 6.8008-0.30078 0.10156-4.1992 1.3984-8.3984 3.8008-12.199-2.3008-4-6.3984-6.5-10.602-6.5z" fill="#fff"/>
 <path d="m50 80.5c-11.5 0-22.398 0-22.398-11.898 0-12.699 10.5-23.898 22.398-23.898s22.398 11.199 22.398 23.898c0 11.898-10.898 11.898-22.398 11.898zm0-32.801c-10.301 0-19.398 9.8008-19.398 20.898 0 8.1016 5.8984 8.8984 19.398 8.8984s19.398-0.80078 19.398-8.8984c0-11.098-9.0977-20.898-19.398-20.898z" fill="#fff"/>
</svg>
